<svg xmlns="http://www.w3.org/2000/svg" viewBox="0 0 129 188" preserveAspectRatio="xMidYMid meet">
  <g transform="translate(-16,-4)">
    <rect x="16" y="4" width="129" height="188" rx="20" fill="#006EE9"/>
    <path d="M55 27C55 34.732 48.732 41 41 41C33.268 41 27 34.732 27 27C27 19.268 33.268 13 41 13C48.732 13 55 19.268 55 27ZM29.8033 27C29.8033 33.1838 34.8162 38.1967 41 38.1967C47.1838 38.1967 52.1967 33.1838 52.1967 27C52.1967 20.8162 47.1838 15.8033 41 15.8033C34.8162 15.8033 29.8033 20.8162 29.8033 27Z" fill="#68A0F4" fill-opacity="0.22"/>
    <path d="M80 91C80 98.732 73.732 105 66 105C58.268 105 52 98.732 52 91C52 83.268 58.268 77 66 77C73.732 77 80 83.268 80 91ZM54.8033 91C54.8033 97.1838 59.8162 102.197 66 102.197C72.1838 102.197 77.1967 97.1838 77.1967 91C77.1967 84.8162 72.1838 79.8033 66 79.8033C59.8162 79.8033 54.8033 84.8162 54.8033 91Z" fill="#68A0F4" fill-opacity="0.22"/>
    <path d="M85 209.5C85 243.466 57.4655 271 23.5 271C-10.4655 271 -38 243.466 -38 209.5C-38 175.534 -10.4655 148 23.5 148C57.4655 148 85 175.534 85 209.5ZM-14.706 209.5C-14.706 230.601 2.39938 247.706 23.5 247.706C44.6006 247.706 61.706 230.601 61.706 209.5C61.706 188.399 44.6006 171.294 23.5 171.294C2.39938 171.294 -14.706 188.399 -14.706 209.5Z" fill="#68A0F4" fill-opacity="0.22"/>
    <path d="M223 108.5C223 142.466 195.466 170 161.5 170C127.534 170 100 142.466 100 108.5C100 74.5345 127.534 47 161.5 47C195.466 47 223 74.5345 223 108.5ZM118.112 108.5C118.112 132.463 137.537 151.888 161.5 151.888C185.463 151.888 204.888 132.463 204.888 108.5C204.888 84.5375 185.463 65.1121 161.5 65.1121C137.537 65.1121 118.112 84.5375 118.112 108.5Z" fill="#68A0F4" fill-opacity="0.22"/>
  </g>
</svg>
