<svg width="14" height="14" viewBox="0 0 16 20" fill="none" xmlns="http://www.w3.org/2000/svg">
<path d="M8 13.6738C10.1571 13.6738 12.0861 13.8513 13.46 14.3379C14.1434 14.5799 14.6545 14.8866 14.9912 15.2539C15.3175 15.61 15.4999 16.0435 15.5 16.5986C15.5 17.1531 15.3166 17.5846 14.9893 17.9385C14.6513 18.3039 14.1385 18.6083 13.4531 18.8477C12.0756 19.3287 10.1461 19.5 8 19.5C5.84334 19.5 3.91404 19.3225 2.54004 18.8359C1.85661 18.5939 1.34549 18.2873 1.00879 17.9199C0.682404 17.5638 0.50005 17.1303 0.5 16.5752C0.5 16.0207 0.68338 15.5893 1.01074 15.2354C1.34875 14.87 1.86147 14.5655 2.54688 14.3262C3.92436 13.8451 5.85395 13.6738 8 13.6738ZM8 0.5C10.6632 0.5 12.7939 2.63038 12.7939 5.29102C12.7939 7.95179 10.6631 10.083 8 10.083C5.33787 10.083 3.20605 7.95173 3.20605 5.29102C3.20607 2.63044 5.33776 0.5 8 0.5Z" fill="#FFFFFF" stroke="#FFFFFF"/>
</svg>
